<?xml version="1.0" standalone="no"?>
<!DOCTYPE svg PUBLIC "-//W3C//DTD SVG 20010904//EN"
 "http://www.w3.org/TR/2001/REC-SVG-20010904/DTD/svg10.dtd">
<svg version="1.0" xmlns="http://www.w3.org/2000/svg"
 width="323.000000pt" height="156.000000pt" viewBox="0 0 323.000000 156.000000"
 preserveAspectRatio="xMidYMid meet">

<g transform="translate(0.000000,156.000000) scale(0.100000,-0.100000)"
fill="#000000" stroke="none">
<path d="M750 1545 c-36 -7 -82 -20 -102 -28 -52 -22 -116 -83 -146 -141 l-27
-51 0 -500 0 -500 110 0 110 0 5 160 c5 153 6 160 25 157 68 -10 237 -4 295
11 180 47 290 211 290 431 -1 207 -81 360 -223 427 -102 47 -215 58 -337 34z
m230 -193 c67 -34 107 -165 96 -315 -9 -127 -57 -202 -144 -227 -41 -11 -153
-13 -201 -4 l-31 7 0 246 c0 222 2 248 19 270 38 50 182 62 261 23z"/>
<path d="M3035 1335 c-18 -17 -25 -35 -25 -62 1 -42 13 -63 47 -81 69 -37 156
28 137 102 -7 29 -48 66 -73 66 -9 -1 -2 -7 14 -14 30 -13 55 -51 55 -82 0 -9
-13 -29 -29 -45 -35 -35 -77 -38 -115 -8 -48 38 -29 119 34 142 12 4 11 6 -3
6 -10 1 -29 -10 -42 -24z"/>
<path d="M3071 1268 c1 -29 4 -43 6 -30 5 27 11 28 40 0 13 -12 23 -16 23 -10
0 6 -5 14 -10 17 -7 4 -5 14 5 27 19 28 3 48 -36 48 -28 0 -29 -1 -28 -52z
m57 25 c-2 -10 -13 -19 -26 -21 -17 -3 -22 2 -22 17 0 16 6 21 26 21 19 0 25
-5 22 -17z"/>
<path d="M1540 1169 c-25 -4 -64 -14 -87 -20 l-43 -12 0 -78 0 -79 28 6 c15 4
38 11 52 16 40 16 220 22 265 9 56 -15 95 -58 102 -111 l6 -43 -84 7 c-168 13
-323 -25 -394 -98 -68 -70 -85 -178 -41 -271 53 -115 168 -170 356 -170 145 0
236 28 301 94 71 70 82 120 78 340 -4 176 -4 177 -37 243 -31 63 -72 107 -129
137 -67 34 -265 51 -373 30z m314 -435 c12 -5 16 -21 16 -73 0 -115 -48 -161
-170 -161 -109 0 -170 45 -170 125 0 83 57 114 212 115 53 0 103 -3 112 -6z"/>
<path d="M2129 1123 c10 -27 83 -203 161 -392 105 -257 140 -351 135 -370 -3
-14 -26 -56 -51 -93 -57 -84 -94 -104 -165 -89 -27 6 -51 11 -52 11 -1 0 -1
-38 1 -84 l3 -84 37 -6 c170 -28 290 31 370 181 27 51 377 909 390 956 4 16
-4 17 -108 15 l-113 -3 -95 -282 c-52 -156 -98 -283 -102 -283 -3 0 -51 128
-105 285 l-99 285 -113 0 -113 0 19 -47z"/>
<path d="M1387 203 c-4 -3 -7 -17 -7 -29 0 -18 -6 -23 -32 -26 -24 -2 -34 -9
-41 -31 -14 -42 13 -77 58 -77 l35 0 0 85 c0 85 -1 91 -13 78z m-7 -109 c0
-31 -3 -35 -22 -32 -39 5 -37 68 2 68 16 0 20 -6 20 -36z"/>
<path d="M55 182 c-3 -3 -5 -36 -5 -74 0 -54 3 -68 15 -68 9 0 15 9 15 25 0
17 5 25 18 25 47 0 79 53 48 80 -16 12 -82 21 -91 12z m73 -36 c2 -10 -2 -22
-10 -27 -25 -17 -38 -9 -38 22 0 26 3 30 22 27 13 -2 24 -11 26 -22z"/>
<path d="M802 113 c3 -66 4 -68 31 -71 31 -4 37 13 7 21 -15 4 -20 14 -20 36
0 24 4 31 20 31 11 0 20 5 20 10 0 6 -9 10 -20 10 -11 0 -20 7 -20 15 0 8 -5
15 -10 15 -7 0 -10 -25 -8 -67z"/>
<path d="M180 141 c0 -6 11 -11 25 -11 35 0 33 -28 -2 -32 -22 -2 -28 -8 -28
-28 0 -22 5 -25 38 -28 l38 -3 -3 53 c-3 52 -4 53 -35 56 -19 2 -33 -1 -33 -7z
m50 -70 c0 -14 -5 -18 -20 -14 -21 5 -25 15 -13 26 13 14 33 6 33 -12z"/>
<path d="M270 146 c0 -2 9 -25 20 -51 25 -58 25 -64 -2 -74 -16 -6 -18 -9 -6
-13 8 -4 20 -3 27 1 18 11 65 144 49 139 -7 -3 -18 -22 -24 -44 -8 -25 -14
-34 -18 -24 -3 8 -10 27 -15 43 -6 15 -15 27 -21 27 -5 0 -10 -2 -10 -4z"/>
<path d="M390 94 c0 -30 5 -54 10 -54 6 0 10 20 10 45 0 38 3 45 20 45 17 0
20 -7 20 -45 0 -25 5 -45 10 -45 6 0 10 20 10 45 0 38 3 45 20 45 17 0 20 -7
20 -45 0 -35 4 -45 16 -45 14 0 16 8 10 46 -3 25 -8 49 -11 54 -3 4 -34 8 -70
8 l-65 1 0 -55z"/>
<path d="M570 131 c-15 -29 -12 -56 8 -74 20 -18 72 -23 72 -7 0 6 -13 10 -29
10 -16 0 -31 6 -35 15 -4 12 3 15 34 15 45 0 44 -1 30 34 -12 33 -64 37 -80 7z
m65 -16 c0 -5 -10 -11 -22 -13 -16 -2 -23 2 -23 13 0 11 7 15 23 13 12 -2 22
-7 22 -13z"/>
<path d="M680 95 c0 -30 5 -55 10 -55 6 0 10 21 10 46 0 41 2 45 23 42 18 -2
23 -10 25 -45 4 -56 22 -56 22 0 0 52 -13 67 -57 67 l-33 0 0 -55z"/>
<path d="M887 143 c-15 -14 -6 -40 18 -51 14 -6 25 -16 25 -22 0 -5 -11 -10
-25 -10 -14 0 -25 -5 -25 -11 0 -6 14 -9 33 -7 43 4 51 42 12 60 -30 13 -28
33 4 32 11 0 21 3 21 8 0 10 -54 11 -63 1z"/>
<path d="M1020 95 c0 -30 5 -55 10 -55 6 0 10 20 10 45 0 38 3 45 20 45 20 0
34 -32 28 -65 -2 -10 3 -20 11 -23 10 -3 12 6 10 42 -4 42 -2 46 16 44 16 -2
21 -12 23 -45 2 -24 7 -43 13 -43 14 0 11 86 -3 97 -7 6 -41 11 -75 11 l-63 2
0 -55z"/>
<path d="M1205 140 c3 -5 17 -10 31 -10 15 0 24 -6 24 -15 0 -10 -10 -15 -30
-15 -34 0 -49 -22 -30 -45 7 -8 28 -15 46 -15 33 0 34 1 34 43 0 24 -5 48 -12
55 -15 15 -72 16 -63 2z m55 -65 c0 -16 -35 -21 -44 -6 -8 12 4 21 26 21 10 0
18 -7 18 -15z"/>
<path d="M1442 138 c-7 -7 -12 -27 -12 -45 0 -34 21 -53 59 -53 31 0 26 18 -6
22 -42 5 -41 28 1 28 28 0 36 4 36 18 0 24 -19 42 -45 42 -12 0 -26 -5 -33
-12z m58 -23 c0 -9 -9 -15 -25 -15 -24 0 -32 10 -18 23 12 13 43 7 43 -8z"/>
</g>
</svg>
